# xmcd
#
# Track frame offsets: 
#        150
#        18745
#        36905
#        55950
#        71450
#        86262
#        106037
#        121597
#        134012
#        150307
#        172805
#        186432
#
# Disc length: 2826 seconds
#
# Revision: 0
# Processed by: cddbd v1.4PL0 Copyright (c) Steve Scherf et al.
# Submitted via: ExactAudioCopy v0.90b4
#
DISCID=930b080c
DTITLE=The Five Points Band - The Five Points Band
DYEAR=1999
DGENRE=Blues
TTITLE0=Devilvision
TTITLE1=Rollin' and Tumblin'
TTITLE2=Me and the Devil
TTITLE3=Crossroads
TTITLE4=Scarecrow
TTITLE5=Devil Got My Woman
TTITLE6=Ain't This Trouble
TTITLE7=Evil
TTITLE8=Can't Be Satisfied
TTITLE9=Little Red Rooster
TTITLE10=All Strung Out
TTITLE11=Catfish...  Two Trains Runnin'
EXTD=
EXTT0=
EXTT1=
EXTT2=
EXTT3=
EXTT4=
EXTT5=
EXTT6=
EXTT7=
EXTT8=
EXTT9=
EXTT10=
EXTT11=
PLAYORDER=
